<svg width="2445" height="802" viewBox="0 0 2445 802" fill="none" xmlns="http://www.w3.org/2000/svg">
<path fill-rule="evenodd" clip-rule="evenodd" d="M339.96 801.53C438.546 702.945 537.132 604.358 635.718 505.772C695.39 446.101 692.345 353.072 639.921 300.648L490.082 150.808C414.708 226.334 339.418 301.946 263.969 377.395C250.585 390.78 252.067 412.607 263.932 424.472L340.255 500.794L489.085 351.963C520.021 382.9 514.039 426.53 490.762 449.807L339.373 601.195L186.336 448.158C165.769 427.59 157.494 384.369 190.932 350.931L440.568 101.295L339.273 0L43.2383 296.035C-14.4128 353.686 -14.4128 447.157 43.2383 504.808L339.96 801.53Z" fill="#2BAD41"/>
<path d="M998.818 210.031C997.526 205.538 995.71 201.568 993.371 198.121C991.032 194.612 988.17 191.658 984.784 189.257C981.46 186.795 977.644 184.918 973.335 183.625C969.088 182.332 964.379 181.686 959.209 181.686C949.545 181.686 941.051 184.087 933.726 188.888C926.463 193.689 920.8 200.675 916.737 209.847C912.675 218.956 910.643 230.098 910.643 243.27C910.643 256.442 912.644 267.645 916.645 276.878C920.646 286.111 926.309 293.159 933.634 298.021C940.958 302.822 949.607 305.223 959.578 305.223C968.626 305.223 976.351 303.623 982.753 300.422C989.216 297.16 994.14 292.574 997.526 286.665C1000.97 280.756 1002.7 273.769 1002.7 265.706L1010.82 266.906H962.071V236.807H1041.2V260.628C1041.2 277.247 1037.69 291.527 1030.67 303.469C1023.65 315.348 1013.99 324.52 1001.68 330.983C989.37 337.384 975.274 340.585 959.393 340.585C941.666 340.585 926.093 336.677 912.675 328.859C899.256 320.981 888.792 309.809 881.283 295.344C873.835 280.817 870.111 263.582 870.111 243.639C870.111 228.312 872.327 214.648 876.759 202.645C881.252 190.58 887.53 180.363 895.594 171.991C903.657 163.62 913.044 157.25 923.754 152.879C934.464 148.509 946.067 146.324 958.562 146.324C969.273 146.324 979.244 147.893 988.477 151.033C997.71 154.11 1005.9 158.481 1013.04 164.143C1020.24 169.806 1026.12 176.546 1030.67 184.364C1035.23 192.119 1038.15 200.675 1039.44 210.031H998.818ZM1188.02 148.909H1228V271.707C1228 285.495 1224.71 297.56 1218.12 307.901C1211.6 318.241 1202.46 326.305 1190.7 332.091C1178.95 337.815 1165.25 340.678 1149.62 340.678C1133.92 340.678 1120.19 337.815 1108.44 332.091C1096.68 326.305 1087.54 318.241 1081.01 307.901C1074.49 297.56 1071.23 285.495 1071.23 271.707V148.909H1111.21V268.291C1111.21 275.493 1112.78 281.894 1115.92 287.496C1119.12 293.097 1123.61 297.498 1129.4 300.699C1135.18 303.9 1141.92 305.5 1149.62 305.5C1157.37 305.5 1164.11 303.9 1169.84 300.699C1175.62 297.498 1180.08 293.097 1183.22 287.496C1186.42 281.894 1188.02 275.493 1188.02 268.291V148.909ZM1300.87 148.909V338H1260.9V148.909H1300.87ZM1333.77 148.909H1383.07L1435.14 275.955H1437.36L1489.43 148.909H1538.74V338H1499.96V214.925H1498.39L1449.46 337.077H1423.05L1374.11 214.463H1372.55V338H1333.77V148.909ZM1604.27 338H1561.43L1626.71 148.909H1678.23L1743.41 338H1700.57L1653.2 192.119H1651.73L1604.27 338ZM1601.59 263.675H1702.78V294.882H1601.59V263.675ZM1766.17 338V148.909H1840.77C1855.05 148.909 1867.24 151.464 1877.33 156.572C1887.49 161.62 1895.21 168.791 1900.51 178.085C1905.86 187.318 1908.54 198.182 1908.54 210.678C1908.54 223.234 1905.83 234.037 1900.42 243.085C1895 252.072 1887.15 258.966 1876.87 263.767C1866.65 268.568 1854.28 270.969 1839.76 270.969H1789.81V238.838H1833.29C1840.93 238.838 1847.27 237.792 1852.31 235.699C1857.36 233.606 1861.11 230.467 1863.58 226.281C1866.1 222.096 1867.36 216.894 1867.36 210.678C1867.36 204.399 1866.1 199.106 1863.58 194.797C1861.11 190.488 1857.33 187.226 1852.22 185.01C1847.17 182.732 1840.8 181.594 1833.11 181.594H1806.15V338H1766.17ZM1868.29 251.949L1915.28 338H1871.15L1825.17 251.949H1868.29ZM1969.39 338H1926.55L1991.82 148.909H2043.34L2108.53 338H2065.69L2018.32 192.119H2016.84L1969.39 338ZM1966.71 263.675H2067.9V294.882H1966.71V263.675ZM1991.08 130.259L1969.29 129.982C1969.29 118.225 1972.19 109.207 1977.97 102.929C1983.76 96.6506 1990.87 93.4806 1999.3 93.419C2003.61 93.419 2007.3 94.1269 2010.38 95.5426C2013.46 96.8968 2016.26 98.4972 2018.78 100.344C2021.31 102.19 2023.71 103.821 2025.98 105.237C2028.26 106.591 2030.72 107.268 2033.37 107.268C2036.94 107.207 2039.65 105.884 2041.5 103.298C2043.4 100.652 2044.36 97.2045 2044.36 92.9574L2065.87 93.6037C2065.75 105.237 2062.79 114.224 2057.01 120.564C2051.22 126.842 2044.14 130.012 2035.77 130.074C2031.22 130.135 2027.37 129.458 2024.23 128.043C2021.15 126.627 2018.44 125.027 2016.11 123.241C2013.77 121.395 2011.49 119.764 2009.27 118.348C2007.06 116.932 2004.56 116.224 2001.79 116.224C1998.59 116.224 1996.01 117.486 1994.04 120.01C1992.07 122.534 1991.08 125.95 1991.08 130.259ZM2131.29 338V148.909H2258.7V181.871H2171.26V226.928H2252.15V259.889H2171.26V305.038H2259.07V338H2131.29ZM2393.06 203.291C2392.32 195.843 2389.15 190.057 2383.55 185.933C2377.95 181.809 2370.35 179.747 2360.75 179.747C2354.22 179.747 2348.71 180.67 2344.22 182.517C2339.73 184.302 2336.28 186.795 2333.88 189.996C2331.54 193.196 2330.37 196.828 2330.37 200.891C2330.25 204.276 2330.96 207.231 2332.5 209.754C2334.1 212.278 2336.28 214.463 2339.05 216.31C2341.82 218.095 2345.02 219.664 2348.65 221.018C2352.28 222.311 2356.16 223.419 2360.29 224.342L2377.28 228.405C2385.52 230.251 2393.09 232.714 2399.99 235.791C2406.88 238.869 2412.85 242.654 2417.9 247.148C2422.95 251.641 2426.86 256.935 2429.63 263.028C2432.46 269.122 2433.9 276.108 2433.97 283.987C2433.9 295.559 2430.95 305.592 2425.1 314.087C2419.32 322.519 2410.94 329.075 2399.99 333.753C2389.09 338.369 2375.95 340.678 2360.56 340.678C2345.3 340.678 2332 338.339 2320.68 333.661C2309.41 328.982 2300.61 322.058 2294.27 312.886C2287.99 303.653 2284.7 292.235 2284.39 278.632H2323.08C2323.51 284.972 2325.32 290.266 2328.53 294.513C2331.79 298.698 2336.13 301.868 2341.54 304.023C2347.02 306.116 2353.21 307.162 2360.1 307.162C2366.87 307.162 2372.75 306.177 2377.74 304.207C2382.78 302.238 2386.69 299.499 2389.46 295.99C2392.23 292.482 2393.62 288.45 2393.62 283.895C2393.62 279.648 2392.36 276.078 2389.83 273.185C2387.37 270.292 2383.74 267.83 2378.94 265.798C2374.2 263.767 2368.38 261.92 2361.49 260.259L2340.9 255.088C2324.96 251.21 2312.37 245.147 2303.13 236.899C2293.9 228.651 2289.32 217.541 2289.38 203.568C2289.32 192.119 2292.36 182.117 2298.52 173.561C2304.73 165.005 2313.26 158.327 2324.09 153.526C2334.93 148.724 2347.24 146.324 2361.03 146.324C2375.06 146.324 2387.31 148.724 2397.77 153.526C2408.3 158.327 2416.48 165.005 2422.33 173.561C2428.18 182.117 2431.2 192.027 2431.38 203.291H2393.06Z" fill="white"/>
<path d="M872.148 442.909H890.227L932.739 546.744H934.205L976.716 442.909H994.795V568H980.625V472.96H979.403L940.312 568H926.631L887.54 472.96H886.318V568H872.148V442.909ZM1107.26 442.909H1122.41V525.733C1122.41 534.284 1120.39 541.919 1116.36 548.638C1112.37 555.316 1106.73 560.589 1099.44 564.457C1092.15 568.285 1083.6 570.199 1073.79 570.199C1063.97 570.199 1055.42 568.285 1048.13 564.457C1040.84 560.589 1035.18 555.316 1031.15 548.638C1027.16 541.919 1025.17 534.284 1025.17 525.733V442.909H1040.31V524.511C1040.31 530.619 1041.66 536.055 1044.35 540.82C1047.03 545.543 1050.86 549.269 1055.83 551.997C1060.84 554.685 1066.82 556.028 1073.79 556.028C1080.75 556.028 1086.74 554.685 1091.74 551.997C1096.75 549.269 1100.58 545.543 1103.23 540.82C1105.91 536.055 1107.26 530.619 1107.26 524.511V442.909ZM1152.66 568V442.909H1167.8V554.562H1225.95V568H1152.66ZM1225.94 456.347V442.909H1319.75V456.347H1280.42V568H1265.27V456.347H1225.94ZM1343.13 568V442.909H1418.63V456.347H1358.28V498.614H1414.72V512.051H1358.28V554.562H1419.6V568H1343.13ZM1545.12 442.909V568H1530.46L1462.3 469.784H1461.08V568H1445.93V442.909H1460.59L1529 541.369H1530.22V442.909H1545.12ZM1660.94 482C1659.6 477.887 1657.83 474.202 1655.63 470.945C1653.47 467.646 1650.89 464.837 1647.87 462.516C1644.9 460.195 1641.52 458.423 1637.73 457.202C1633.95 455.98 1629.79 455.369 1625.27 455.369C1617.86 455.369 1611.12 457.283 1605.06 461.111C1598.99 464.938 1594.16 470.578 1590.58 478.03C1587 485.482 1585.21 494.623 1585.21 505.455C1585.21 516.286 1587.02 525.428 1590.64 532.879C1594.27 540.331 1599.17 545.971 1605.36 549.798C1611.55 553.626 1618.51 555.54 1626.25 555.54C1633.42 555.54 1639.73 554.013 1645.19 550.959C1650.68 547.864 1654.96 543.507 1658.01 537.888C1661.11 532.228 1662.65 525.57 1662.65 517.915L1667.3 518.892H1629.67V505.455H1677.31V518.892C1677.31 529.194 1675.11 538.152 1670.72 545.767C1666.36 553.382 1660.33 559.286 1652.64 563.48C1644.98 567.634 1636.19 569.71 1626.25 569.71C1615.18 569.71 1605.44 567.104 1597.06 561.892C1588.71 556.68 1582.19 549.269 1577.51 539.659C1572.87 530.049 1570.55 518.648 1570.55 505.455C1570.55 495.56 1571.87 486.662 1574.52 478.763C1577.2 470.822 1580.99 464.063 1585.88 458.484C1590.76 452.906 1596.55 448.63 1603.22 445.658C1609.9 442.685 1617.25 441.199 1625.27 441.199C1631.87 441.199 1638.02 442.196 1643.72 444.192C1649.46 446.146 1654.57 448.936 1659.05 452.56C1663.57 456.143 1667.34 460.439 1670.35 465.447C1673.36 470.415 1675.44 475.933 1676.58 482H1660.94ZM1703.26 568V442.909H1778.75V456.347H1718.4V498.614H1774.84V512.051H1718.4V554.562H1779.73V568H1703.26ZM1905.25 442.909V568H1890.59L1822.42 469.784H1821.2V568H1806.05V442.909H1820.71L1889.12 541.369H1890.34V442.909H1905.25ZM1935.56 568V442.909H1950.71V498.614H2017.4V442.909H2032.55V568H2017.4V512.051H1950.71V568H1935.56ZM2068.01 568H2052.13L2098.06 442.909H2113.7L2159.63 568H2143.75L2106.37 462.699H2105.39L2068.01 568ZM2073.87 519.136H2137.88V532.574H2073.87V519.136ZM2179.11 568V442.909H2221.38C2231.15 442.909 2239.17 444.579 2245.44 447.918C2251.72 451.216 2256.36 455.756 2259.37 461.538C2262.38 467.321 2263.89 473.897 2263.89 481.267C2263.89 488.637 2262.38 495.173 2259.37 500.874C2256.36 506.574 2251.74 511.054 2245.51 514.311C2239.28 517.528 2231.32 519.136 2221.62 519.136H2187.42V505.455H2221.14C2227.81 505.455 2233.19 504.477 2237.26 502.523C2241.37 500.568 2244.35 497.799 2246.18 494.216C2248.05 490.592 2248.99 486.276 2248.99 481.267C2248.99 476.259 2248.05 471.881 2246.18 468.135C2244.3 464.389 2241.31 461.498 2237.2 459.462C2233.09 457.385 2227.65 456.347 2220.89 456.347H2194.26V568H2179.11ZM2237.99 511.807L2268.78 568H2251.19L2220.89 511.807H2237.99ZM2304.28 442.909V568H2289.13V442.909H2304.28ZM2339.78 568H2323.9L2369.83 442.909H2385.47L2431.4 568H2415.52L2378.14 462.699H2377.16L2339.78 568ZM2345.65 519.136H2409.66V532.574H2345.65V519.136Z" fill="white"/>
</svg>
