<svg width="2463" height="802" viewBox="0 0 2463 802" fill="none" xmlns="http://www.w3.org/2000/svg">
<path fill-rule="evenodd" clip-rule="evenodd" d="M339.96 801.53C438.546 702.945 537.132 604.358 635.718 505.772C695.39 446.101 692.345 353.072 639.921 300.648L490.082 150.808C414.708 226.334 339.418 301.946 263.969 377.395C250.585 390.78 252.067 412.607 263.932 424.472L340.255 500.794L489.085 351.963C520.021 382.9 514.039 426.53 490.762 449.807L339.373 601.195L186.336 448.158C165.769 427.59 157.494 384.369 190.932 350.931L440.568 101.295L339.273 0L43.2383 296.035C-14.4128 353.686 -14.4128 447.157 43.2383 504.808L339.96 801.53Z" fill="#2BAD41"/>
<path d="M998.818 210.031C997.526 205.538 995.71 201.568 993.371 198.121C991.032 194.612 988.17 191.658 984.784 189.257C981.46 186.795 977.644 184.918 973.335 183.625C969.088 182.332 964.379 181.686 959.209 181.686C949.545 181.686 941.051 184.087 933.726 188.888C926.463 193.689 920.8 200.675 916.737 209.847C912.675 218.956 910.643 230.098 910.643 243.27C910.643 256.442 912.644 267.645 916.645 276.878C920.646 286.111 926.309 293.159 933.634 298.021C940.958 302.822 949.607 305.223 959.578 305.223C968.626 305.223 976.351 303.623 982.753 300.422C989.216 297.16 994.14 292.574 997.526 286.665C1000.97 280.756 1002.7 273.769 1002.7 265.706L1010.82 266.906H962.071V236.807H1041.2V260.628C1041.2 277.247 1037.69 291.527 1030.67 303.469C1023.65 315.348 1013.99 324.52 1001.68 330.983C989.37 337.384 975.274 340.585 959.393 340.585C941.666 340.585 926.093 336.677 912.675 328.859C899.256 320.981 888.792 309.809 881.283 295.344C873.835 280.817 870.111 263.582 870.111 243.639C870.111 228.312 872.327 214.648 876.759 202.645C881.252 190.58 887.53 180.363 895.594 171.991C903.657 163.62 913.044 157.25 923.754 152.879C934.464 148.509 946.067 146.324 958.562 146.324C969.273 146.324 979.244 147.893 988.477 151.033C997.71 154.11 1005.9 158.481 1013.04 164.143C1020.24 169.806 1026.12 176.546 1030.67 184.364C1035.23 192.119 1038.15 200.675 1039.44 210.031H998.818ZM1188.02 148.909H1228V271.707C1228 285.495 1224.71 297.56 1218.12 307.901C1211.6 318.241 1202.46 326.305 1190.7 332.091C1178.95 337.815 1165.25 340.678 1149.62 340.678C1133.92 340.678 1120.19 337.815 1108.44 332.091C1096.68 326.305 1087.54 318.241 1081.01 307.901C1074.49 297.56 1071.23 285.495 1071.23 271.707V148.909H1111.21V268.291C1111.21 275.493 1112.78 281.894 1115.92 287.496C1119.12 293.097 1123.61 297.498 1129.4 300.699C1135.18 303.9 1141.92 305.5 1149.62 305.5C1157.37 305.5 1164.11 303.9 1169.84 300.699C1175.62 297.498 1180.08 293.097 1183.22 287.496C1186.42 281.894 1188.02 275.493 1188.02 268.291V148.909ZM1300.87 148.909V338H1260.9V148.909H1300.87ZM1333.77 148.909H1383.07L1435.14 275.955H1437.36L1489.43 148.909H1538.74V338H1499.96V214.925H1498.39L1449.46 337.077H1423.05L1374.11 214.463H1372.55V338H1333.77V148.909ZM1604.27 338H1561.43L1626.71 148.909H1678.23L1743.41 338H1700.57L1653.2 192.119H1651.73L1604.27 338ZM1601.59 263.675H1702.78V294.882H1601.59V263.675ZM1766.17 338V148.909H1840.77C1855.05 148.909 1867.24 151.464 1877.33 156.572C1887.49 161.62 1895.21 168.791 1900.51 178.085C1905.86 187.318 1908.54 198.182 1908.54 210.678C1908.54 223.234 1905.83 234.037 1900.42 243.085C1895 252.072 1887.15 258.966 1876.87 263.767C1866.65 268.568 1854.28 270.969 1839.76 270.969H1789.81V238.838H1833.29C1840.93 238.838 1847.27 237.792 1852.31 235.699C1857.36 233.606 1861.11 230.467 1863.58 226.281C1866.1 222.096 1867.36 216.894 1867.36 210.678C1867.36 204.399 1866.1 199.106 1863.58 194.797C1861.11 190.488 1857.33 187.226 1852.22 185.01C1847.17 182.732 1840.8 181.594 1833.11 181.594H1806.15V338H1766.17ZM1868.29 251.949L1915.28 338H1871.15L1825.17 251.949H1868.29ZM1969.39 338H1926.55L1991.82 148.909H2043.34L2108.53 338H2065.69L2018.32 192.119H2016.84L1969.39 338ZM1966.71 263.675H2067.9V294.882H1966.71V263.675ZM1991.08 130.259L1969.29 129.982C1969.29 118.225 1972.19 109.207 1977.97 102.929C1983.76 96.6506 1990.87 93.4806 1999.3 93.419C2003.61 93.419 2007.3 94.1269 2010.38 95.5426C2013.46 96.8968 2016.26 98.4972 2018.78 100.344C2021.31 102.19 2023.71 103.821 2025.98 105.237C2028.26 106.591 2030.72 107.268 2033.37 107.268C2036.94 107.207 2039.65 105.884 2041.5 103.298C2043.4 100.652 2044.36 97.2045 2044.36 92.9574L2065.87 93.6037C2065.75 105.237 2062.79 114.224 2057.01 120.564C2051.22 126.842 2044.14 130.012 2035.77 130.074C2031.22 130.135 2027.37 129.458 2024.23 128.043C2021.15 126.627 2018.44 125.027 2016.11 123.241C2013.77 121.395 2011.49 119.764 2009.27 118.348C2007.06 116.932 2004.56 116.224 2001.79 116.224C1998.59 116.224 1996.01 117.486 1994.04 120.01C1992.07 122.534 1991.08 125.95 1991.08 130.259ZM2131.29 338V148.909H2258.7V181.871H2171.26V226.928H2252.15V259.889H2171.26V305.038H2259.07V338H2131.29ZM2393.06 203.291C2392.32 195.843 2389.15 190.057 2383.55 185.933C2377.95 181.809 2370.35 179.747 2360.75 179.747C2354.22 179.747 2348.71 180.67 2344.22 182.517C2339.73 184.302 2336.28 186.795 2333.88 189.996C2331.54 193.196 2330.37 196.828 2330.37 200.891C2330.25 204.276 2330.96 207.231 2332.5 209.754C2334.1 212.278 2336.28 214.463 2339.05 216.31C2341.82 218.095 2345.02 219.664 2348.65 221.018C2352.28 222.311 2356.16 223.419 2360.29 224.342L2377.28 228.405C2385.52 230.251 2393.09 232.714 2399.99 235.791C2406.88 238.869 2412.85 242.654 2417.9 247.148C2422.95 251.641 2426.86 256.935 2429.63 263.028C2432.46 269.122 2433.9 276.108 2433.97 283.987C2433.9 295.559 2430.95 305.592 2425.1 314.087C2419.32 322.519 2410.94 329.075 2399.99 333.753C2389.09 338.369 2375.95 340.678 2360.56 340.678C2345.3 340.678 2332 338.339 2320.68 333.661C2309.41 328.982 2300.61 322.058 2294.27 312.886C2287.99 303.653 2284.7 292.235 2284.39 278.632H2323.08C2323.51 284.972 2325.32 290.266 2328.53 294.513C2331.79 298.698 2336.13 301.868 2341.54 304.023C2347.02 306.116 2353.21 307.162 2360.1 307.162C2366.87 307.162 2372.75 306.177 2377.74 304.207C2382.78 302.238 2386.69 299.499 2389.46 295.99C2392.23 292.482 2393.62 288.45 2393.62 283.895C2393.62 279.648 2392.36 276.078 2389.83 273.185C2387.37 270.292 2383.74 267.83 2378.94 265.798C2374.2 263.767 2368.38 261.92 2361.49 260.259L2340.9 255.088C2324.96 251.21 2312.37 245.147 2303.13 236.899C2293.9 228.651 2289.32 217.541 2289.38 203.568C2289.32 192.119 2292.36 182.117 2298.52 173.561C2304.73 165.005 2313.26 158.327 2324.09 153.526C2334.93 148.724 2347.24 146.324 2361.03 146.324C2375.06 146.324 2387.31 148.724 2397.77 153.526C2408.3 158.327 2416.48 165.005 2422.33 173.561C2428.18 182.117 2431.2 192.027 2431.38 203.291H2393.06Z" fill="white"/>
<path d="M871.972 442.364H889.841L931.858 544.991H933.307L975.324 442.364H993.193V566H979.188V472.065H977.98L939.344 566H925.821L887.185 472.065H885.977V566H871.972V442.364ZM1104.35 442.364H1119.32V524.224C1119.32 532.676 1117.33 540.222 1113.34 546.863C1109.4 553.463 1103.82 558.675 1096.62 562.499C1089.42 566.282 1080.97 568.173 1071.27 568.173C1061.57 568.173 1053.11 566.282 1045.91 562.499C1038.71 558.675 1033.11 553.463 1029.13 546.863C1025.18 540.222 1023.21 532.676 1023.21 524.224V442.364H1038.18V523.017C1038.18 529.054 1039.51 534.427 1042.17 539.136C1044.82 543.804 1048.61 547.487 1053.52 550.183C1058.47 552.839 1064.38 554.168 1071.27 554.168C1078.15 554.168 1084.06 552.839 1089.01 550.183C1093.96 547.487 1097.75 543.804 1100.36 539.136C1103.02 534.427 1104.35 529.054 1104.35 523.017V442.364ZM1149.22 566V442.364H1164.19V552.719H1221.66V566H1149.22ZM1221.65 455.645V442.364H1314.37V455.645H1275.5V566H1260.52V455.645H1221.65ZM1352.45 442.364V566H1337.48V442.364H1352.45ZM1382.47 566V442.364H1457.09V455.645H1397.44V497.42H1453.22V510.702H1397.44V552.719H1458.05V566H1382.47ZM1582.11 442.364V566H1567.62L1500.25 468.926H1499.04V566H1484.07V442.364H1498.56L1566.17 539.679H1567.38V442.364H1582.11ZM1696.59 481C1695.26 476.935 1693.51 473.293 1691.33 470.073C1689.2 466.813 1686.65 464.036 1683.67 461.742C1680.73 459.448 1677.39 457.697 1673.65 456.49C1669.9 455.283 1665.8 454.679 1661.33 454.679C1654.01 454.679 1647.35 456.571 1641.35 460.354C1635.35 464.137 1630.58 469.711 1627.04 477.076C1623.5 484.441 1621.73 493.476 1621.73 504.182C1621.73 514.887 1623.52 523.923 1627.1 531.288C1630.68 538.653 1635.53 544.227 1641.65 548.01C1647.77 551.793 1654.65 553.685 1662.3 553.685C1669.38 553.685 1675.62 552.175 1681.01 549.157C1686.44 546.098 1690.67 541.792 1693.69 536.238C1696.75 530.644 1698.28 524.063 1698.28 516.497L1702.86 517.463H1665.68V504.182H1712.77V517.463C1712.77 527.645 1710.59 536.5 1706.25 544.026C1701.94 551.552 1695.98 557.387 1688.38 561.533C1680.81 565.638 1672.12 567.69 1662.3 567.69C1651.35 567.69 1641.73 565.115 1633.44 559.963C1625.19 554.812 1618.75 547.487 1614.12 537.989C1609.53 528.491 1607.24 517.222 1607.24 504.182C1607.24 494.402 1608.55 485.608 1611.16 477.8C1613.82 469.952 1617.56 463.272 1622.39 457.758C1627.22 452.244 1632.94 448.018 1639.54 445.08C1646.14 442.142 1653.4 440.673 1661.33 440.673C1667.85 440.673 1673.93 441.659 1679.56 443.631C1685.24 445.563 1690.29 448.32 1694.71 451.902C1699.18 455.444 1702.9 459.69 1705.88 464.64C1708.86 469.55 1710.91 475.003 1712.04 481H1696.59ZM1738.41 566V442.364H1813.02V455.645H1753.38V497.42H1809.16V510.702H1753.38V552.719H1813.99V566H1738.41ZM1938.05 442.364V566H1923.56L1856.19 468.926H1854.98V566H1840.01V442.364H1854.5L1922.11 539.679H1923.32V442.364H1938.05ZM1968.01 566V442.364H1982.98V497.42H2048.9V442.364H2063.87V566H2048.9V510.702H1982.98V566H1968.01ZM2098.92 566H2083.22L2128.62 442.364H2144.07L2189.47 566H2173.78L2136.83 461.923H2135.86L2098.92 566ZM2104.71 517.705H2167.98V530.986H2104.71V517.705ZM2208.73 566V442.364H2250.5C2260.16 442.364 2268.09 444.014 2274.29 447.314C2280.49 450.574 2285.08 455.061 2288.05 460.776C2291.03 466.491 2292.52 472.991 2292.52 480.276C2292.52 487.56 2291.03 494.02 2288.05 499.654C2285.08 505.289 2280.51 509.716 2274.35 512.935C2268.19 516.115 2260.33 517.705 2250.75 517.705H2216.94V504.182H2250.26C2256.86 504.182 2262.18 503.216 2266.2 501.284C2270.27 499.352 2273.2 496.616 2275.01 493.074C2276.87 489.492 2277.79 485.226 2277.79 480.276C2277.79 475.325 2276.87 470.999 2275.01 467.296C2273.16 463.594 2270.21 460.736 2266.14 458.724C2262.08 456.671 2256.7 455.645 2250.02 455.645H2223.7V566H2208.73ZM2266.93 510.46L2297.35 566H2279.97L2250.02 510.46H2266.93ZM2332.44 442.364V566H2317.47V442.364H2332.44ZM2367.53 566H2351.83L2397.23 442.364H2412.69L2458.08 566H2442.39L2405.44 461.923H2404.48L2367.53 566ZM2373.33 517.705H2436.59V530.986H2373.33V517.705Z" fill="white"/>
</svg>
