<svg width="1395" height="209" viewBox="0 0 1395 209" fill="none" xmlns="http://www.w3.org/2000/svg">
<path d="M0.507812 0.699219H40.6445L131.318 164.322V0.699219H162.227V209H122.09L31.416 47.5742V209H0.507812V0.699219Z" fill="#F67404"/>
<path d="M203.242 0.699219H364.814V31.4609H234.15V178.092H364.814V209H203.242V0.699219ZM251.729 85.2207H364.814V115.982H251.729V85.2207Z" fill="#F67404"/>
<path d="M614.578 59.293C614.578 48.4531 617.264 38.6387 622.635 29.8496C628.006 20.9629 635.184 13.8828 644.168 8.60938C653.152 3.33594 663.113 0.699219 674.051 0.699219H783.182V31.4609H674.051C666.141 31.4609 659.402 34.1953 653.836 39.6641C648.27 45.0352 645.486 51.5781 645.486 59.293V150.992C645.486 158.414 648.27 164.811 653.836 170.182C659.402 175.455 666.141 178.092 674.051 178.092H783.182V209H674.051C663.113 209 653.152 206.412 644.168 201.236C635.184 196.061 628.006 189.127 622.635 180.436C617.264 171.646 614.578 161.979 614.578 151.432V59.293Z" fill="#F67404"/>
<path d="M819.949 0.699219H981.521V31.4609H850.857V178.092H981.521V209H819.949V0.699219ZM868.436 85.2207H981.521V115.982H868.436V85.2207Z" fill="#F67404"/>
<path d="M1019.75 0.699219H1129.91C1139.38 0.699219 1147.98 3.04297 1155.69 7.73047C1163.5 12.3203 1169.71 18.4727 1174.29 26.1875C1178.98 33.9023 1181.33 42.4961 1181.33 51.9688V72.7695C1181.33 82.2422 1179.03 90.7871 1174.44 98.4043C1169.95 106.021 1163.8 112.076 1155.98 116.568C1148.17 121.061 1139.43 123.307 1129.76 123.307L1191.87 209H1154.23L1092.12 123.307H1068.24V92.5449H1129.91C1135.67 92.5449 1140.55 90.5918 1144.56 86.6855C1148.56 82.6816 1150.56 77.8965 1150.56 72.3301V51.9688C1150.56 46.3047 1148.56 41.4707 1144.56 37.4668C1140.55 33.4629 1135.67 31.4609 1129.91 31.4609H1050.66V209H1019.75V0.699219Z" fill="#F67404"/>
<path d="M1281.23 0.699219H1319.75L1394.31 209H1361.36L1338.65 146.305H1280.5L1291.63 115.543H1327.52L1300.56 41.1289L1239.63 209H1206.67L1281.23 0.699219Z" fill="#F67404"/>
<path d="M469.439 104.15L394 0H431.793L488.775 78.9551L507.965 104.15L583.258 208.301H545.611L488.775 129.199L469.439 104.15Z" fill="#F67404"/>
<path d="M584.5 0L446 112H475L393.5 208L546 117H517L584.5 0Z" fill="#FCEF04"/>
<path d="M0.507812 0.699219H40.6445L131.318 164.322V0.699219H162.227V209H122.09L31.416 47.5742V209H0.507812V0.699219Z" fill="#F67404"/>
<path d="M203.242 0.699219H364.814V31.4609H234.15V178.092H364.814V209H203.242V0.699219ZM251.729 85.2207H364.814V115.982H251.729V85.2207Z" fill="#F67404"/>
<path d="M469.439 104.15L394 0H431.793L488.775 78.9551L507.965 104.15L583.258 208.301H545.611L488.775 129.199L469.439 104.15Z" fill="#F67404"/>
<path d="M584.5 0L446 112H475L393.5 208L546 117H517L584.5 0Z" fill="#FCEF04"/>
</svg>
