<svg width="936" height="209" viewBox="0 0 936 209" fill="none" xmlns="http://www.w3.org/2000/svg">
<path d="M0.507812 0.699219H40.6445L131.318 164.322V0.699219H162.227V209H122.09L31.416 47.5742V209H0.507812V0.699219Z" fill="#F67404"/>
<path d="M203.242 0.699219H364.814V31.4609H234.15V178.092H364.814V209H203.242V0.699219ZM251.729 85.2207H364.814V115.982H251.729V85.2207Z" fill="#F67404"/>
<path d="M614.578 114.957H706.424V140.738H614.578V114.957Z" fill="#F67404"/>
<path d="M744.656 0.699219H772.928L840.164 82.877L907.4 0.699219H935.672V209H904.764V53.2871L853.055 115.982H827.42L775.564 53.2871V209H744.656V0.699219Z" fill="#F67404"/>
<path d="M469.439 104.15L394 0H431.793L488.775 78.9551L507.965 104.15L583.258 208.301H545.611L488.775 129.199L469.439 104.15Z" fill="#F67404"/>
<path d="M584.5 0L446 112H475L393.5 208L546 117H517L584.5 0Z" fill="#FCEF04"/>
<path d="M0.507812 0.699219H40.6445L131.318 164.322V0.699219H162.227V209H122.09L31.416 47.5742V209H0.507812V0.699219Z" fill="#F67404"/>
<path d="M203.242 0.699219H364.814V31.4609H234.15V178.092H364.814V209H203.242V0.699219ZM251.729 85.2207H364.814V115.982H251.729V85.2207Z" fill="#F67404"/>
<path d="M469.439 104.15L394 0H431.793L488.775 78.9551L507.965 104.15L583.258 208.301H545.611L488.775 129.199L469.439 104.15Z" fill="#F67404"/>
<path d="M584.5 0L446 112H475L393.5 208L546 117H517L584.5 0Z" fill="#FCEF04"/>
</svg>
