<svg width="176" height="40" viewBox="0 0 176 40" fill="none" xmlns="http://www.w3.org/2000/svg">
<path d="M15.1601 23.0463C15.1601 23.0463 15.1518 23.0088 15.1273 22.9698C15.0564 22.895 15.0101 22.8592 14.9637 22.8234C14.9637 22.8234 14.9611 22.8329 14.9548 22.8057C14.9173 22.7577 14.8862 22.7368 14.8551 22.7159C14.8551 22.7159 14.8538 22.7265 14.8473 22.6965C14.7931 22.6282 14.7454 22.59 14.6978 22.5517C14.6978 22.5517 14.7047 22.5461 14.6952 22.5201C14.6401 22.456 14.5946 22.4179 14.549 22.3798C14.549 22.3798 14.5402 22.3831 14.5257 22.3495C14.4304 22.2453 14.3495 22.1748 14.2687 22.1042C14.2687 22.1042 14.267 22.1098 14.2616 22.0774C14.1884 21.9912 14.1206 21.9374 14.0528 21.8836C14.0528 21.8836 14.0511 21.8905 14.0472 21.8608C14.0114 21.8084 13.9795 21.7856 13.9475 21.7629C13.9475 21.7629 13.9464 21.7761 13.9457 21.7455C13.908 21.6969 13.8711 21.6788 13.8342 21.6608C13.8342 21.6608 13.8339 21.6707 13.8321 21.64C13.7971 21.5867 13.7639 21.564 13.7308 21.5414C13.7308 21.5414 13.7321 21.5533 13.7277 21.5202C13.6547 21.4329 13.586 21.3787 13.5173 21.3245C13.5173 21.3245 13.5149 21.3367 13.5124 21.3065C13.4742 21.2555 13.4385 21.2346 13.4028 21.2138C13.4028 21.2138 13.4045 21.2262 13.4014 21.1912C13.2982 21.0625 13.1981 20.9688 13.0979 20.8752C13.0979 20.8752 13.0961 20.8842 13.0899 20.8547C13.049 20.8045 13.0143 20.7838 12.9797 20.7632C12.9797 20.7632 12.9801 20.7809 12.9783 20.7503C12.9425 20.6981 12.9084 20.6765 12.8744 20.6549C12.772 20.5584 12.6696 20.4618 12.486 20.2887C12.4685 20.4896 12.4246 20.6077 12.4549 20.7019C13.814 24.9286 15.1797 29.1533 16.5071 33.442C13.5806 33.51 10.6916 33.5147 7.80267 33.5179C6.38572 33.5194 6.3998 33.5136 5.96455 32.1592C5.2231 29.8518 4.46198 27.5508 3.70912 25.2471C3.70912 25.2471 3.70452 25.2584 3.70722 25.2164C3.41863 24.2896 3.12735 23.4047 2.83606 22.5198C2.83606 22.5198 2.83199 22.5302 2.83427 22.4877C1.89959 19.5028 0.96264 16.5603 0 13.5372C3.43156 13.5372 6.77558 13.5372 10.1904 13.5372C10.0021 13.0055 9.84052 12.5493 9.67887 12.0517C9.57653 11.7327 9.47427 11.4553 9.372 11.1778C9.372 11.1778 9.36574 11.1944 9.37345 11.1586C9.3419 11.0318 9.30264 10.9409 9.26337 10.8499C9.26337 10.8499 9.25724 10.8661 9.26397 10.8287C9.20799 10.6231 9.14526 10.455 9.08254 10.2868C9.08254 10.2868 9.0788 10.3045 9.08545 10.2636C9.04466 10.1009 8.99723 9.97911 8.9498 9.85727C8.9498 9.85727 8.94445 9.88085 8.95411 9.84341C8.92308 9.71367 8.88239 9.62136 8.84169 9.52906C8.84169 9.52906 8.8351 9.55268 8.84514 9.5163C8.81727 9.38802 8.77934 9.29611 8.74141 9.2042C8.74141 9.2042 8.75188 9.2193 8.75413 9.17955C8.73611 9.09948 8.71586 9.05917 8.69906 8.97674C8.49265 8.31973 8.28279 7.70482 8.07292 7.08992C8.07292 7.08992 8.07818 7.07611 8.07154 7.02921C7.99536 6.80002 7.92582 6.61772 7.85628 6.43543C7.85628 6.43543 7.86377 6.41733 7.85531 6.36796C7.26782 4.53917 6.6888 2.75974 6.10978 0.980316C6.10978 0.980316 6.11675 0.964465 6.11009 0.915952C6.03087 0.628703 5.95036 0.391777 5.89509 0.149103C5.88757 0.116101 6.00633 0.05434 6.06662 0.00589674C6.06662 0.00589674 6.0676 -0.012829 6.06849 0.016459C6.1029 0.0668917 6.13642 0.0880394 6.16995 0.109186C6.16995 0.109186 6.17106 0.0955687 6.17238 0.124695C6.20321 0.178582 6.23271 0.203342 6.2622 0.228102C6.2622 0.228102 6.27949 0.187916 6.28271 0.235918C6.3496 0.337507 6.41327 0.391096 6.47693 0.444687C6.47693 0.444687 6.50222 0.423291 6.49504 0.457444C6.50502 0.524893 6.53132 0.547654 6.56674 0.559878C6.56674 0.559878 6.56982 0.569581 6.585 0.592683C6.61947 0.642856 6.64512 0.660871 6.67712 0.66983C6.67712 0.66983 6.68 0.678543 6.69462 0.70173C6.72853 0.752 6.75419 0.769996 6.78622 0.778906C6.78622 0.778906 6.79205 0.78076 6.80571 0.812583C6.86822 0.880986 6.91708 0.917567 6.96595 0.954146C6.97151 0.986164 6.98731 1.01189 7.0457 1.0735C7.18281 1.20658 7.28757 1.29751 7.39233 1.38843C7.39233 1.38843 7.39423 1.38165 7.39861 1.41071C7.43611 1.45984 7.46922 1.47992 7.50233 1.50001C7.50233 1.50001 7.5029 1.49166 7.50447 1.52241C7.53912 1.57596 7.57219 1.59877 7.60526 1.62159C7.60526 1.62159 7.60588 1.60651 7.60698 1.63753C7.64382 1.68939 7.67956 1.71023 7.71529 1.73106C7.71529 1.73106 7.71555 1.71531 7.71618 1.74662C7.75266 1.7987 7.78851 1.81948 7.82436 1.84025C7.82436 1.84025 7.82474 1.82449 7.82551 1.85562C7.86202 1.90758 7.89775 1.92842 7.93349 1.94925C7.93349 1.94925 7.9341 1.93285 7.9331 1.9642C7.96475 2.0206 7.99739 2.04566 8.03004 2.07071C8.03004 2.07071 8.02984 2.0576 8.03462 2.08991C8.1065 2.17737 8.17359 2.23252 8.24069 2.28766C8.24069 2.28766 8.24356 2.27567 8.2473 2.3055C8.28607 2.3568 8.3211 2.37826 8.35612 2.39972C8.35612 2.39972 8.35529 2.3877 8.3637 2.42209C8.54013 2.62204 8.70814 2.78759 8.87616 2.95314C8.87616 2.95314 8.90954 2.92972 8.89873 2.96524C8.90511 3.03407 8.93141 3.05686 8.96684 3.06911C8.96684 3.06911 8.96926 3.07922 8.98376 3.10306C9.0174 3.15452 9.04335 3.17211 9.0761 3.17968C9.0761 3.17968 9.07843 3.18979 9.09924 3.21984C9.19836 3.32016 9.27668 3.39042 9.35499 3.46069C9.35499 3.46069 9.35845 3.45457 9.36515 3.48734C9.43939 3.57326 9.50693 3.62641 9.57447 3.67956C9.57447 3.67956 9.57618 3.67268 9.58054 3.70172C9.61801 3.75084 9.65112 3.77092 9.68423 3.79101C9.68423 3.79101 9.68463 3.78286 9.68692 3.81303C9.72369 3.86288 9.75817 3.88256 9.79265 3.90224C9.79265 3.90224 9.79303 3.89282 9.7956 3.92282C9.83229 3.97373 9.86641 3.99465 9.90053 4.01556C9.90053 4.01556 9.90233 4.00281 9.90267 4.03299C9.93558 4.08759 9.96816 4.112 10.0007 4.13642C10.0007 4.13642 10.0005 4.12339 10.0055 4.15589C10.0797 4.24256 10.1489 4.29674 10.2181 4.35091C10.2181 4.35091 10.2179 4.33979 10.222 4.37267C10.291 4.46346 10.3558 4.52135 10.4207 4.57924C10.4207 4.57924 10.4299 4.565 10.4357 4.60149C10.5435 4.72742 10.6455 4.81687 10.7475 4.90631C10.7475 4.90631 10.7493 4.89669 10.7526 4.92541C10.7853 4.97882 10.8147 5.00351 10.844 5.02819C10.844 5.02819 10.8531 5.01277 10.856 5.04494C10.8907 5.09755 10.9223 5.11798 10.954 5.13842C10.954 5.13842 10.959 5.12677 10.9635 5.15649C10.9997 5.20664 11.0314 5.22707 11.0631 5.24751C11.0631 5.24751 11.0681 5.23585 11.0726 5.26558C11.1088 5.31574 11.1405 5.33617 11.1722 5.3566C11.1722 5.3566 11.1754 5.34602 11.1772 5.37351C11.1962 5.43427 11.2224 5.457 11.2578 5.46918C11.2578 5.46918 11.2609 5.47894 11.276 5.5021C11.3104 5.55237 11.336 5.57032 11.3681 5.5791C11.3681 5.5791 11.3704 5.58839 11.3844 5.61225C11.4175 5.6637 11.4434 5.68125 11.4761 5.68874C11.4761 5.68874 11.4814 5.69044 11.4962 5.72044C11.5565 5.78682 11.602 5.8232 11.6476 5.85958C11.6476 5.85958 11.65 5.85404 11.6572 5.88662C11.7314 5.97269 11.7984 6.02617 11.8654 6.07965C11.8654 6.07965 11.8672 6.07279 11.8716 6.1019C11.9095 6.15046 11.9429 6.16992 11.9764 6.18937C11.9764 6.18937 11.9766 6.18227 11.9821 6.2154C12.0549 6.30296 12.1221 6.35738 12.1893 6.4118C12.1893 6.4118 12.1911 6.40405 12.1977 6.44047C12.4771 6.75644 12.7499 7.03599 13.0226 7.31554C13.038 7.30255 13.0534 7.28956 13.0592 7.32731C13.1494 7.46674 13.2492 7.55543 13.349 7.64413C13.349 7.64413 13.386 7.6195 13.3736 7.65594C13.3785 7.72588 13.4049 7.74887 13.4404 7.76136C13.4404 7.76136 13.443 7.76971 13.4572 7.79353C13.4909 7.84506 13.517 7.8632 13.5498 7.8718C13.5498 7.8718 13.5522 7.88083 13.5727 7.91104C13.675 8.01119 13.7568 8.08112 13.8386 8.15106C13.8417 8.18499 13.8573 8.21162 13.9174 8.27227C14.0184 8.36897 14.0874 8.42435 14.1565 8.47973C14.1565 8.47973 14.1582 8.47285 14.1626 8.50196C14.1996 8.55267 14.2323 8.57426 14.265 8.59585C14.265 8.59585 14.2668 8.58467 14.2678 8.61404C14.3024 8.65825 14.3361 8.6731 14.3698 8.68795C15.4547 9.84667 16.5278 11.0167 17.6275 12.1611C18.8667 13.4506 20.1311 14.7158 21.3803 15.9957C21.5025 16.121 21.5944 16.276 21.7409 16.4679C21.8155 16.5403 21.8494 16.5621 21.8834 16.5838C21.8834 16.5838 21.8854 16.5666 21.8868 16.5966C21.9231 16.6482 21.958 16.6697 21.9929 16.6912C21.9929 16.6912 21.9921 16.6744 21.9936 16.7059C22.0408 16.778 22.0865 16.8187 22.1321 16.8593C22.1321 16.8593 22.1274 16.8683 22.1427 16.8944C22.2057 16.9574 22.2533 16.9944 22.3009 17.0313C22.3009 17.0313 22.3027 17.0201 22.3095 17.0491C22.3636 17.1147 22.4108 17.1513 22.458 17.1879C22.4673 17.2239 22.4867 17.2531 22.5461 17.3182C22.6224 17.3988 22.6689 17.4369 22.7154 17.475C22.7154 17.475 22.7193 17.4805 22.7327 17.5031C22.7655 17.5527 22.7911 17.5707 22.8232 17.5796C22.8232 17.5796 22.8266 17.5833 22.842 17.6124C22.9034 17.6779 22.9495 17.7142 22.9956 17.7504C22.9956 17.7504 22.9972 17.7444 23.0005 17.7738C23.0372 17.823 23.0706 17.8428 23.104 17.8625C23.104 17.8625 23.1044 17.8555 23.1121 17.8895C23.2218 18.0136 23.3238 18.1038 23.4257 18.1939C23.4257 18.1939 23.428 18.1862 23.4348 18.2225C23.6831 18.4991 23.9246 18.7393 24.1662 18.9795C24.1662 18.9795 24.168 18.9705 24.1737 19.0003C24.2143 19.0506 24.2492 19.071 24.2841 19.0915C24.2841 19.0915 24.2838 19.0739 24.2856 19.1044C24.3212 19.1566 24.355 19.1784 24.3888 19.2002C24.4587 19.3075 24.5286 19.4148 24.5985 19.5222C24.6535 19.5057 24.7085 19.4892 24.7636 19.4727C24.7345 19.2655 24.7346 19.0491 24.6722 18.8525C23.3744 14.765 22.0695 10.6799 20.7671 6.59387C20.7459 6.52731 20.7399 6.45592 20.7832 6.35463C24.1762 6.32595 27.5126 6.3294 30.849 6.33285C30.9244 6.55422 30.9997 6.77558 31.107 7.06837C31.4037 7.98564 31.6607 8.83399 31.9349 9.6768C32.4715 11.3267 33.0177 12.9735 33.5599 14.6216C33.5599 14.6216 33.5553 14.654 33.5665 14.7104C33.861 15.6229 34.1445 16.4789 34.428 17.3349C34.428 17.3349 34.4326 17.3234 34.4298 17.3649C34.5659 17.8221 34.7049 18.2378 34.8439 18.6535C34.8439 18.6535 34.8475 18.6411 34.8479 18.687C35.1378 19.6155 35.4272 20.4981 35.7166 21.3808C35.7166 21.3808 35.7181 21.3711 35.7193 21.4144C35.8755 21.8984 36.0304 22.3391 36.1854 22.7798C36.1854 22.7798 36.1889 22.7696 36.1842 22.8093C36.2501 23.0474 36.3207 23.2458 36.3914 23.4442C36.3914 23.4442 36.3954 23.434 36.3899 23.4759C36.5254 23.9329 36.6665 24.348 36.8076 24.7631C36.8076 24.7631 36.8095 24.753 36.8103 24.7969C36.9495 25.3053 37.0878 25.7697 37.2485 26.3092C33.8382 26.3092 30.4971 26.3092 27.0755 26.3092C27.1895 26.6021 27.2724 26.8149 27.3531 27.0615C27.3789 27.1545 27.4068 27.2138 27.4347 27.273C27.4347 27.273 27.4384 27.2561 27.4356 27.2976C27.5184 27.5955 27.6039 27.8521 27.6887 28.151C28.2615 29.9354 28.835 31.6774 29.4085 33.4195C29.4085 33.4195 29.4008 33.4372 29.4092 33.4865C29.6989 34.3937 29.9802 35.2515 30.2616 36.1094C30.2616 36.1094 30.2659 36.0968 30.2644 36.1374C30.3053 36.2767 30.3477 36.3753 30.39 36.4739C30.39 36.4739 30.3833 36.4902 30.3901 36.5386C30.5042 36.897 30.6115 37.2071 30.7189 37.5172C30.7189 37.5172 30.7231 37.5067 30.7165 37.546C30.7787 37.7841 30.8475 37.983 30.9162 38.1818C30.9162 38.1818 30.9209 38.1686 30.9215 38.2148C31.074 38.8407 31.2259 39.4203 31.3777 40C31.3777 40 31.3444 39.9963 31.3161 39.961C31.1213 39.7539 30.9547 39.5823 30.7881 39.4106C30.7881 39.4106 30.7521 39.4348 30.7642 39.3988C30.7591 39.3296 30.7328 39.3069 30.6974 39.2948C30.6974 39.2948 30.6939 39.2845 30.6749 39.2606C30.6314 39.2091 30.6009 39.1931 30.5644 39.1885C30.5644 39.1885 30.5607 39.1991 30.5551 39.1707C30.5181 39.1216 30.4869 39.1009 30.4557 39.0801C30.4557 39.0801 30.4543 39.0913 30.4482 39.0603C30.3952 38.9897 30.3483 38.9501 30.3014 38.9105C30.3014 38.9105 30.3027 38.9125 30.2931 38.8821C30.2028 38.7795 30.1221 38.7073 30.0414 38.6351C30.0414 38.6351 30.0171 38.6592 30.0135 38.6174C29.9639 38.539 29.9177 38.5025 29.8716 38.466C29.8716 38.466 29.8698 38.4727 29.8642 38.4395C29.7937 38.349 29.7286 38.2917 29.6636 38.2344C29.6636 38.2344 29.6612 38.2465 29.6586 38.2163C29.6203 38.1652 29.5846 38.1444 29.5489 38.1235C29.5489 38.1235 29.5486 38.1393 29.548 38.108C29.5115 38.0559 29.4757 38.0351 29.4398 38.0144C29.4398 38.0144 29.4395 38.0301 29.4389 37.9989C29.4024 37.9468 29.3666 37.926 29.3307 37.9053C29.3307 37.9053 29.3325 37.9176 29.3288 37.8812C29.1511 37.6799 28.977 37.515 28.803 37.3502C28.803 37.3502 28.8006 37.3641 28.8 37.3346C28.7693 37.2789 28.7393 37.2528 28.7093 37.2267C28.7093 37.2267 28.7072 37.2367 28.7024 37.2081C28.6654 37.1584 28.6332 37.1374 28.6011 37.1163C28.6011 37.1163 28.5846 37.1472 28.5816 37.1043C28.5148 37.0078 28.451 36.9543 28.3871 36.9007C28.3723 36.916 28.3575 36.9312 28.3524 36.8906C28.21 36.6884 28.0579 36.5421 27.9059 36.3959C27.9059 36.3959 27.9041 36.4013 27.8987 36.369C27.826 36.2822 27.7588 36.2277 27.6915 36.1732C27.6915 36.1732 27.6893 36.1803 27.6866 36.1503C27.649 36.1014 27.6142 36.0825 27.5794 36.0636C27.5794 36.0636 27.5795 36.0718 27.5749 36.043C27.5371 35.9943 27.5039 35.9744 27.4707 35.9545C27.4707 35.9545 27.4701 35.9629 27.4674 35.9318C27.4304 35.8767 27.3961 35.8525 27.3617 35.8284C27.3611 35.7955 27.3481 35.7687 27.2873 35.7074C27.1161 35.5366 26.9801 35.4063 26.8441 35.2761C26.8441 35.2761 26.8333 35.2917 26.829 35.2553C26.7572 35.1651 26.6896 35.1114 26.6219 35.0576C26.6219 35.0576 26.621 35.0705 26.6193 35.0406C26.5874 34.9856 26.5573 34.9604 26.5272 34.9352C26.5272 34.9352 26.5247 34.9456 26.5194 34.9177C26.4824 34.8684 26.4508 34.8469 26.4191 34.8255C26.4191 34.8255 26.4149 34.8368 26.4101 34.8072C26.3735 34.7571 26.3417 34.7366 26.3099 34.7161C26.3099 34.7161 26.3062 34.7268 26.3012 34.6977C26.2645 34.6481 26.2328 34.6276 26.2011 34.6072C26.2011 34.6072 26.1976 34.6179 26.1959 34.5903C26.1771 34.5294 26.1508 34.5067 26.1155 34.4946C26.1155 34.4946 26.1119 34.4843 26.0929 34.4603C26.0493 34.4088 26.0188 34.3927 25.9822 34.3882C25.9822 34.3882 25.9804 34.3978 25.9774 34.3716C25.9567 34.313 25.9306 34.2902 25.8961 34.277C25.8961 34.277 25.8937 34.2672 25.8788 34.2438C25.8447 34.1932 25.819 34.1753 25.787 34.1665C25.787 34.1665 25.7808 34.1652 25.767 34.1347C25.7079 34.0673 25.6627 34.0304 25.6175 33.9935C25.6175 33.9935 25.6148 33.9999 25.6081 33.9672C25.5338 33.8813 25.4662 33.8281 25.3987 33.775C25.3987 33.775 25.397 33.7818 25.3925 33.7527C25.3547 33.7041 25.3212 33.6847 25.2878 33.6652C25.2878 33.6652 25.2875 33.6723 25.282 33.6392C25.2093 33.5516 25.1421 33.4972 25.0748 33.4428C25.0748 33.4428 25.0731 33.4505 25.067 33.4153C24.9224 33.2523 24.7838 33.1245 24.6453 32.9968C24.6453 32.9968 24.6448 33.0064 24.6377 32.9723C24.495 32.8085 24.3593 32.6788 24.2236 32.549C24.2236 32.549 24.2205 32.5583 24.2156 32.5233C24.0954 32.3744 23.9801 32.2604 23.8647 32.1465C23.8647 32.1465 23.866 32.1486 23.8581 32.1207C23.8043 32.055 23.7583 32.0173 23.7123 31.9795C23.7123 31.9795 23.709 31.9741 23.6964 31.9508C23.6647 31.8999 23.6388 31.8823 23.606 31.8747C23.606 31.8747 23.6035 31.8699 23.5869 31.8414C23.5233 31.7781 23.4764 31.7433 23.4294 31.7085C23.4294 31.7085 23.4297 31.7122 23.4182 31.6781C23.1649 31.4042 22.9231 31.1643 22.6813 30.9244C22.6813 30.9244 22.6806 30.9343 22.6754 30.9023C22.6052 30.8119 22.5401 30.7536 22.4751 30.6952C22.4751 30.6952 22.4741 30.7046 22.4674 30.6726C22.3927 30.5859 22.3247 30.5313 22.2566 30.4766C22.2566 30.4766 22.2544 30.4903 22.2516 30.4605C22.2147 30.4083 22.1806 30.3859 22.1464 30.3635C22.1464 30.3635 22.1442 30.3792 22.1427 30.3496C22.1074 30.2982 22.0736 30.2763 22.0398 30.2543C22.0398 30.2543 22.0387 30.2674 22.0375 30.238C22.0066 30.1841 21.9768 30.1596 21.9471 30.1351C21.9471 30.1351 21.9392 30.1488 21.9351 30.1183C21.8997 30.0669 21.8685 30.0461 21.8372 30.0253C21.8372 30.0253 21.8319 30.0372 21.8268 30.0078C21.7905 29.9577 21.7593 29.9369 21.7281 29.9161C21.7281 29.9161 21.7222 29.9285 21.7168 29.8984C21.6793 29.8477 21.6472 29.8271 21.6151 29.8064C21.6151 29.8064 21.6149 29.8168 21.6095 29.7848C21.5447 29.6974 21.4853 29.6418 21.4258 29.5863C21.4258 29.5863 21.4234 29.579 21.4047 29.5511C21.3395 29.4886 21.293 29.4539 21.2465 29.4192C21.2465 29.4192 21.248 29.4206 21.2403 29.3941C21.2009 29.3486 21.1694 29.3295 21.1378 29.3104C21.1378 29.3104 21.1393 29.3119 21.1281 29.2803C21.0169 29.1574 20.9169 29.0661 20.817 28.9749C20.817 28.9749 20.815 28.9817 20.8106 28.9525C20.7727 28.9039 20.7392 28.8845 20.7058 28.865C20.7058 28.865 20.7055 28.8721 20.6992 28.8377C20.592 28.7103 20.4912 28.6173 20.3903 28.5244C20.3903 28.5244 20.3897 28.5336 20.3816 28.4987C20.1349 28.2222 19.8964 27.9806 19.6578 27.739C19.6443 27.7529 19.6309 27.7669 19.6252 27.7313C19.5692 27.6274 19.5054 27.5731 19.4416 27.5188C19.4264 27.5339 19.4112 27.5489 19.4075 27.5133C19.361 27.4067 19.3029 27.3509 19.2448 27.2951C19.2448 27.2951 19.2412 27.2847 19.225 27.2618C19.1892 27.2118 19.1634 27.1933 19.1314 27.1834C19.1314 27.1834 19.1296 27.1735 19.1083 27.1423C18.9731 27.0053 18.8591 26.8995 18.7453 26.7936C18.7453 26.7936 18.7417 26.7997 18.735 26.7669C18.6608 26.681 18.5932 26.6278 18.5257 26.5747C18.5257 26.5747 18.524 26.5816 18.5201 26.5519C18.4843 26.4995 18.4524 26.4767 18.4204 26.454C18.4204 26.454 18.4193 26.4672 18.4184 26.4367C18.3807 26.3881 18.3439 26.37 18.3071 26.352C18.3071 26.352 18.3069 26.3618 18.3051 26.331C18.2702 26.2776 18.2369 26.255 18.2037 26.2324C18.2037 26.2324 18.2021 26.2482 18.2007 26.2154C18.1623 26.1561 18.1254 26.1295 18.0885 26.103C17.3224 25.2912 16.5562 24.4795 15.7442 23.6178C15.5946 23.4705 15.4908 23.3731 15.387 23.2757C15.387 23.2757 15.384 23.2848 15.3766 23.2518C15.2995 23.1613 15.2298 23.1038 15.1601 23.0463Z" fill="#FFC800"/>
<path d="M63.2727 7.72727V31H60.5455L47.8636 12.7273H47.6364V31H44.8182V7.72727H47.5455L60.2727 26.0455H60.5V7.72727H63.2727ZM75.8665 31.3636C74.1847 31.3636 72.7339 30.9924 71.5142 30.25C70.3021 29.5 69.3665 28.4545 68.7074 27.1136C68.0559 25.7652 67.7301 24.197 67.7301 22.4091C67.7301 20.6212 68.0559 19.0455 68.7074 17.6818C69.3665 16.3106 70.2831 15.2424 71.4574 14.4773C72.6392 13.7045 74.018 13.3182 75.5938 13.3182C76.5028 13.3182 77.4006 13.4697 78.2869 13.7727C79.1733 14.0758 79.9801 14.5682 80.7074 15.25C81.4347 15.9242 82.0142 16.8182 82.446 17.9318C82.8778 19.0455 83.0938 20.4167 83.0938 22.0455V23.1818H69.6392V20.8636H80.3665C80.3665 19.8788 80.1695 19 79.7756 18.2273C79.3892 17.4545 78.8362 16.8447 78.1165 16.3977C77.4044 15.9508 76.5634 15.7273 75.5938 15.7273C74.5256 15.7273 73.6013 15.9924 72.821 16.5227C72.0483 17.0455 71.4536 17.7273 71.0369 18.5682C70.6203 19.4091 70.4119 20.3106 70.4119 21.2727V22.8182C70.4119 24.1364 70.6392 25.2538 71.0938 26.1705C71.5559 27.0795 72.196 27.7727 73.0142 28.25C73.8324 28.7197 74.7831 28.9545 75.8665 28.9545C76.571 28.9545 77.2074 28.8561 77.7756 28.6591C78.3513 28.4545 78.8475 28.1515 79.2642 27.75C79.6809 27.3409 80.0028 26.8333 80.2301 26.2273L82.821 26.9545C82.5483 27.8333 82.09 28.6061 81.446 29.2727C80.8021 29.9318 80.0066 30.447 79.0597 30.8182C78.1127 31.1818 77.0483 31.3636 75.8665 31.3636ZM88.7045 13.5455L92.8864 20.6818L97.0682 13.5455H100.159L94.5227 22.2727L100.159 31H97.0682L92.8864 24.2273L88.7045 31H85.6136L91.1591 22.2727L85.6136 13.5455H88.7045ZM124.088 15.875H119.111C119.02 15.2311 118.834 14.6591 118.554 14.1591C118.274 13.6515 117.914 13.2197 117.474 12.8636C117.035 12.5076 116.527 12.2348 115.952 12.0455C115.384 11.8561 114.766 11.7614 114.099 11.7614C112.895 11.7614 111.846 12.0606 110.952 12.6591C110.058 13.25 109.365 14.1136 108.872 15.25C108.38 16.3788 108.134 17.75 108.134 19.3636C108.134 21.0227 108.38 22.4167 108.872 23.5455C109.372 24.6742 110.069 25.5265 110.963 26.1023C111.857 26.678 112.891 26.9659 114.065 26.9659C114.724 26.9659 115.334 26.8788 115.895 26.7045C116.463 26.5303 116.967 26.2765 117.406 25.9432C117.846 25.6023 118.209 25.1894 118.497 24.7045C118.793 24.2197 118.997 23.6667 119.111 23.0455L124.088 23.0682C123.959 24.1364 123.637 25.1667 123.122 26.1591C122.615 27.1439 121.929 28.0265 121.065 28.8068C120.209 29.5795 119.187 30.1932 117.997 30.6477C116.815 31.0947 115.478 31.3182 113.986 31.3182C111.91 31.3182 110.054 30.8485 108.418 29.9091C106.789 28.9697 105.501 27.6098 104.554 25.8295C103.615 24.0492 103.145 21.8939 103.145 19.3636C103.145 16.8258 103.622 14.6667 104.577 12.8864C105.531 11.1061 106.827 9.75 108.463 8.81818C110.099 7.87879 111.94 7.40909 113.986 7.40909C115.334 7.40909 116.584 7.59848 117.736 7.97727C118.895 8.35606 119.921 8.90909 120.815 9.63636C121.709 10.3561 122.437 11.2386 122.997 12.2841C123.565 13.3295 123.929 14.5265 124.088 15.875ZM135.48 31.3409C133.685 31.3409 132.139 30.9773 130.844 30.25C129.556 29.5152 128.563 28.4773 127.866 27.1364C127.17 25.7879 126.821 24.1932 126.821 22.3523C126.821 20.5568 127.17 18.9811 127.866 17.625C128.563 16.2689 129.545 15.2121 130.81 14.4545C132.082 13.697 133.575 13.3182 135.287 13.3182C136.438 13.3182 137.51 13.5038 138.503 13.875C139.503 14.2386 140.374 14.7879 141.116 15.5227C141.866 16.2576 142.45 17.1818 142.866 18.2955C143.283 19.4015 143.491 20.697 143.491 22.1818V23.5114H128.753V20.5114H138.935C138.935 19.8144 138.783 19.197 138.48 18.6591C138.177 18.1212 137.757 17.7008 137.219 17.3977C136.688 17.0871 136.071 16.9318 135.366 16.9318C134.632 16.9318 133.98 17.1023 133.412 17.4432C132.851 17.7765 132.412 18.2273 132.094 18.7955C131.776 19.3561 131.613 19.9811 131.605 20.6705V23.5227C131.605 24.3864 131.764 25.1326 132.082 25.7614C132.408 26.3902 132.866 26.875 133.457 27.2159C134.048 27.5568 134.749 27.7273 135.56 27.7273C136.098 27.7273 136.59 27.6515 137.037 27.5C137.484 27.3485 137.866 27.1212 138.185 26.8182C138.503 26.5152 138.745 26.1439 138.912 25.7045L143.389 26C143.162 27.0758 142.696 28.0152 141.991 28.8182C141.295 29.6136 140.393 30.2348 139.287 30.6818C138.188 31.1212 136.92 31.3409 135.48 31.3409ZM146.651 31V13.5455H151.344V16.5909H151.526C151.844 15.5076 152.378 14.6894 153.128 14.1364C153.878 13.5758 154.741 13.2955 155.719 13.2955C155.961 13.2955 156.223 13.3106 156.503 13.3409C156.783 13.3712 157.029 13.4129 157.241 13.4659V17.7614C157.014 17.6932 156.7 17.6326 156.298 17.5795C155.897 17.5265 155.529 17.5 155.196 17.5C154.484 17.5 153.848 17.6553 153.287 17.9659C152.734 18.2689 152.295 18.6932 151.969 19.2386C151.651 19.7841 151.491 20.4129 151.491 21.125V31H146.651ZM164.222 31.3295C163.108 31.3295 162.116 31.1364 161.244 30.75C160.373 30.3561 159.684 29.7765 159.176 29.0114C158.676 28.2386 158.426 27.2765 158.426 26.125C158.426 25.1553 158.604 24.3409 158.96 23.6818C159.316 23.0227 159.801 22.4924 160.415 22.0909C161.028 21.6894 161.725 21.3864 162.506 21.1818C163.294 20.9773 164.119 20.8333 164.983 20.75C165.998 20.6439 166.816 20.5455 167.438 20.4545C168.059 20.3561 168.509 20.2121 168.79 20.0227C169.07 19.8333 169.21 19.553 169.21 19.1818V19.1136C169.21 18.3939 168.983 17.8371 168.528 17.4432C168.081 17.0492 167.445 16.8523 166.619 16.8523C165.748 16.8523 165.055 17.0455 164.54 17.4318C164.025 17.8106 163.684 18.2879 163.517 18.8636L159.04 18.5C159.267 17.4394 159.714 16.5227 160.381 15.75C161.047 14.9697 161.907 14.3712 162.96 13.9545C164.021 13.5303 165.248 13.3182 166.642 13.3182C167.612 13.3182 168.54 13.4318 169.426 13.6591C170.32 13.8864 171.112 14.2386 171.801 14.7159C172.498 15.1932 173.047 15.8068 173.449 16.5568C173.85 17.2992 174.051 18.1894 174.051 19.2273V31H169.46V28.5795H169.324C169.044 29.125 168.669 29.6061 168.199 30.0227C167.729 30.4318 167.165 30.7538 166.506 30.9886C165.847 31.2159 165.085 31.3295 164.222 31.3295ZM165.608 27.9886C166.32 27.9886 166.949 27.8485 167.494 27.5682C168.04 27.2803 168.468 26.8939 168.778 26.4091C169.089 25.9242 169.244 25.375 169.244 24.7614V22.9091C169.093 23.0076 168.884 23.0985 168.619 23.1818C168.362 23.2576 168.07 23.3295 167.744 23.3977C167.419 23.4583 167.093 23.5152 166.767 23.5682C166.441 23.6136 166.146 23.6553 165.881 23.6932C165.313 23.7765 164.816 23.9091 164.392 24.0909C163.968 24.2727 163.638 24.5189 163.403 24.8295C163.169 25.1326 163.051 25.5114 163.051 25.9659C163.051 26.625 163.29 27.1288 163.767 27.4773C164.252 27.8182 164.866 27.9886 165.608 27.9886Z" fill="white"/>
</svg>
