<svg width="1112" height="367" viewBox="0 0 1112 367" fill="none" xmlns="http://www.w3.org/2000/svg">
<path d="M551.25 103V263H532.5L445.313 137.375H443.75V263H424.375V103H443.125L530.625 228.937H532.188V103H551.25ZM637.832 265.5C626.27 265.5 616.296 262.948 607.91 257.844C599.577 252.688 593.145 245.5 588.613 236.281C584.134 227.01 581.895 216.229 581.895 203.938C581.895 191.646 584.134 180.812 588.613 171.437C593.145 162.01 599.447 154.667 607.52 149.406C615.645 144.094 625.124 141.438 635.957 141.438C642.207 141.438 648.379 142.479 654.473 144.562C660.566 146.646 666.113 150.031 671.113 154.719C676.113 159.354 680.098 165.5 683.066 173.156C686.035 180.812 687.52 190.24 687.52 201.437V209.25H595.02V193.312H668.77C668.77 186.542 667.415 180.5 664.707 175.187C662.051 169.875 658.249 165.682 653.301 162.609C648.405 159.536 642.624 158 635.957 158C628.613 158 622.259 159.823 616.895 163.469C611.582 167.062 607.493 171.75 604.629 177.531C601.764 183.312 600.332 189.51 600.332 196.125V206.75C600.332 215.813 601.895 223.495 605.02 229.797C608.197 236.047 612.598 240.812 618.223 244.094C623.848 247.323 630.384 248.938 637.832 248.938C642.676 248.938 647.051 248.26 650.957 246.906C654.915 245.5 658.327 243.417 661.191 240.656C664.056 237.844 666.27 234.354 667.832 230.187L685.645 235.188C683.77 241.229 680.618 246.542 676.191 251.125C671.764 255.656 666.296 259.198 659.785 261.75C653.275 264.25 645.957 265.5 637.832 265.5ZM726.094 143L754.844 192.062L783.594 143H804.844L766.094 203L804.844 263H783.594L754.844 216.437L726.094 263H704.844L742.969 203L704.844 143H726.094ZM894.961 185.812V203H824.961V185.812H894.961ZM924.434 103H966.152L1010.21 210.5H1012.09L1056.15 103H1097.87V263H1065.06V158.859H1063.73L1022.32 262.219H999.98L958.574 158.469H957.246V263H924.434V103Z" fill="white"/>
<path d="M138.962 211.25C138.962 211.25 138.886 210.906 138.661 210.548C138.012 209.863 137.587 209.534 137.162 209.206C137.162 209.206 137.138 209.293 137.08 209.044C136.737 208.604 136.451 208.412 136.166 208.22C136.166 208.22 136.154 208.318 136.094 208.043C135.598 207.417 135.161 207.067 134.724 206.716C134.724 206.716 134.787 206.665 134.7 206.426C134.196 205.838 133.778 205.489 133.361 205.14C133.361 205.14 133.28 205.17 133.147 204.862C132.273 203.907 131.532 203.261 130.791 202.614C130.791 202.614 130.776 202.665 130.726 202.368C130.055 201.578 129.434 201.085 128.812 200.592C128.812 200.592 128.796 200.655 128.761 200.383C128.433 199.902 128.14 199.694 127.847 199.485C127.847 199.485 127.837 199.607 127.83 199.326C127.485 198.88 127.147 198.715 126.808 198.55C126.808 198.55 126.806 198.64 126.789 198.359C126.468 197.87 126.164 197.663 125.86 197.455C125.86 197.455 125.873 197.564 125.832 197.26C125.163 196.46 124.533 195.964 123.904 195.467C123.904 195.467 123.882 195.579 123.859 195.302C123.509 194.834 123.181 194.643 122.854 194.452C122.854 194.452 122.87 194.566 122.841 194.245C121.895 193.065 120.977 192.207 120.06 191.348C120.06 191.348 120.043 191.431 119.986 191.16C119.611 190.7 119.293 190.511 118.976 190.322C118.976 190.322 118.98 190.484 118.963 190.203C118.634 189.725 118.322 189.527 118.01 189.329C117.072 188.444 116.134 187.559 114.45 185.972C114.29 187.814 113.887 188.896 114.165 189.76C126.623 228.503 139.142 267.228 151.309 306.54C124.484 307.162 98.0027 307.206 71.5216 307.235C58.5334 307.249 58.6625 307.196 54.6729 294.781C47.8765 273.631 40.8998 252.539 33.9989 231.423C33.9989 231.423 33.9567 231.526 33.9815 231.141C31.3362 222.645 28.6662 214.534 25.9962 206.423C25.9962 206.423 25.9589 206.518 25.9798 206.129C17.4123 178.768 8.82385 151.797 0 124.086C31.4547 124.086 62.1071 124.086 93.4087 124.086C91.6822 119.212 90.2012 115.031 88.7194 110.47C87.7813 107.546 86.844 105.002 85.9066 102.459C85.9066 102.459 85.8492 102.611 85.9199 102.283C85.6307 101.121 85.2708 100.287 84.9108 99.4535C84.9108 99.4535 84.8546 99.6019 84.9164 99.2593C84.4032 97.375 83.8282 95.8333 83.2533 94.2916C83.2533 94.2916 83.219 94.4538 83.28 94.0795C82.9061 92.5883 82.4713 91.4715 82.0365 90.3547C82.0365 90.3547 81.9875 90.5709 82.0761 90.2277C81.7917 89.0384 81.4186 88.1923 81.0456 87.3462C81.0456 87.3462 80.9852 87.5627 81.0773 87.2293C80.8217 86.0534 80.4741 85.211 80.1264 84.3685C80.1264 84.3685 80.2224 84.5069 80.243 84.1425C80.0779 83.4086 79.8922 83.0391 79.7382 82.2835C77.8462 76.2611 75.9225 70.6247 73.9988 64.9883C73.9988 64.9883 74.0471 64.8617 73.9861 64.4319C73.2878 62.331 72.6505 60.6601 72.0131 58.9891C72.0131 58.9891 72.0817 58.8232 72.0042 58.3707C66.6191 41.6074 61.3116 25.2966 56.0041 8.98588C56.0041 8.98588 56.068 8.84058 56.0069 8.39589C55.2807 5.76288 54.5428 3.59115 54.0361 1.36672C53.9672 1.06421 55.0558 0.498097 55.6085 0.0540513C55.6085 0.0540513 55.6175 -0.117595 55.6256 0.150868C55.941 0.613149 56.2483 0.806996 56.5557 1.00083C56.5557 1.00083 56.5658 0.876012 56.5779 1.14299C56.8605 1.63694 57.1309 1.8639 57.4012 2.09086C57.4012 2.09086 57.5597 1.72249 57.5892 2.1625C58.2024 3.09369 58.7859 3.5849 59.3695 4.07613C59.3695 4.07613 59.6013 3.88001 59.5355 4.19307C59.627 4.81133 59.868 5.01996 60.1927 5.13201C60.1927 5.13201 60.221 5.22095 60.3601 5.43271C60.6761 5.89261 60.9112 6.05774 61.2045 6.13987C61.2045 6.13987 61.2309 6.21973 61.3649 6.43227C61.6757 6.89306 61.9109 7.05802 62.2045 7.13968C62.2045 7.13968 62.258 7.15668 62.3832 7.44838C62.9562 8.07538 63.4041 8.41069 63.852 8.74599C63.903 9.03948 64.0478 9.27533 64.583 9.84002C65.8398 11.0599 66.8001 11.8933 67.7603 12.7268C67.7603 12.7268 67.7777 12.6646 67.8179 12.931C68.1616 13.3814 68.4651 13.5654 68.7686 13.7495C68.7686 13.7495 68.7738 13.673 68.7883 13.9548C69.1059 14.4457 69.409 14.6548 69.7121 14.864C69.7121 14.864 69.7178 14.7257 69.7279 15.0101C70.0656 15.4854 70.3932 15.6764 70.7207 15.8675C70.7207 15.8675 70.7231 15.7231 70.7288 16.01C71.0632 16.4874 71.3918 16.6779 71.7205 16.8683C71.7205 16.8683 71.7239 16.7239 71.731 17.0092C72.0656 17.4854 72.3932 17.6764 72.7207 17.8675C72.7207 17.8675 72.7264 17.7171 72.7172 18.0044C73.0073 18.5215 73.3065 18.7511 73.6058 18.9808C73.6058 18.9808 73.6039 18.8606 73.6478 19.1568C74.3067 19.9584 74.9216 20.4639 75.5366 20.9694C75.5366 20.9694 75.563 20.8594 75.5973 21.1329C75.9527 21.6031 76.2737 21.7999 76.5947 21.9966C76.5947 21.9966 76.5871 21.8864 76.6642 22.2016C78.2814 24.0344 79.8215 25.5519 81.3615 27.0693C81.3615 27.0693 81.6676 26.8547 81.5685 27.1803C81.6269 27.8112 81.868 28.0201 82.1928 28.1324C82.1928 28.1324 82.2149 28.2251 82.3478 28.4436C82.6563 28.9153 82.8941 29.0766 83.1942 29.1459C83.1942 29.1459 83.2157 29.2386 83.4064 29.514C84.315 30.4336 85.0328 31.0777 85.7507 31.7217C85.7507 31.7217 85.7824 31.6657 85.8438 31.966C86.5243 32.7536 87.1434 33.2408 87.7625 33.728C87.7625 33.728 87.7782 33.6649 87.8181 33.9311C88.1616 34.3813 88.4651 34.5654 88.7686 34.7495C88.7686 34.7495 88.7722 34.6749 88.7932 34.9514C89.1303 35.4083 89.4463 35.5887 89.7624 35.7691C89.7624 35.7691 89.7658 35.6828 89.7894 35.9577C90.1258 36.4244 90.4385 36.6161 90.7512 36.8078C90.7512 36.8078 90.7677 36.6909 90.7709 36.9676C91.0726 37.4681 91.3712 37.6918 91.6697 37.9156C91.6697 37.9156 91.6677 37.7962 91.7133 38.0941C92.3933 38.8886 93.0277 39.3852 93.6621 39.8818C93.6621 39.8818 93.6603 39.7798 93.6982 40.0813C94.3304 40.9134 94.9247 41.444 95.5189 41.9747C95.5189 41.9747 95.6032 41.8441 95.6568 42.1786C96.6452 43.333 97.5801 44.1529 98.515 44.9727C98.515 44.9727 98.5316 44.8845 98.562 45.1478C98.8615 45.6374 99.1306 45.8637 99.3997 46.0899C99.3997 46.0899 99.4827 45.9486 99.5096 46.2435C99.827 46.7257 100.117 46.913 100.408 47.1003C100.408 47.1003 100.453 46.9936 100.495 47.2659C100.827 47.7256 101.117 47.9129 101.408 48.1002C101.408 48.1002 101.453 47.9934 101.495 48.2659C101.827 48.7257 102.117 48.913 102.408 49.1002C102.408 49.1002 102.437 49.0033 102.454 49.2552C102.628 49.8122 102.868 50.0205 103.193 50.1322C103.193 50.1322 103.221 50.2216 103.359 50.4339C103.674 50.8947 103.91 51.0592 104.204 51.1397C104.204 51.1397 104.224 51.2249 104.353 51.4435C104.656 51.9152 104.894 52.076 105.194 52.1447C105.194 52.1447 105.242 52.1603 105.378 52.4353C105.93 53.0437 106.348 53.3772 106.765 53.7107C106.765 53.7107 106.787 53.6599 106.853 53.9586C107.533 54.7475 108.148 55.2377 108.762 55.7279C108.762 55.7279 108.778 55.665 108.819 55.9318C109.166 56.377 109.473 56.5553 109.779 56.7336C109.779 56.7336 109.781 56.6685 109.832 56.9722C110.498 57.7748 111.115 58.2736 111.731 58.7725C111.731 58.7725 111.747 58.7015 111.808 59.0353C114.369 61.9316 116.869 64.494 119.369 67.0565C119.51 66.9374 119.651 66.8183 119.705 67.1643C120.532 68.4424 121.446 69.2554 122.361 70.0684C122.361 70.0684 122.7 69.8426 122.587 70.1767C122.631 70.8177 122.873 71.0285 123.199 71.1429C123.199 71.1429 123.222 71.2195 123.352 71.4379C123.661 71.9101 123.901 72.0765 124.202 72.1553C124.202 72.1553 124.223 72.2381 124.411 72.515C125.349 73.4329 126.099 74.074 126.849 74.7151C126.877 75.0261 127.02 75.2702 127.571 75.8262C128.497 76.7125 129.13 77.2202 129.762 77.7278C129.762 77.7278 129.778 77.6647 129.818 77.9315C130.158 78.3963 130.458 78.5943 130.757 78.7922C130.757 78.7922 130.774 78.6897 130.783 78.9589C131.1 79.3642 131.409 79.5003 131.718 79.6364C141.662 90.2576 151.499 100.982 161.579 111.473C172.937 123.293 184.528 134.889 195.978 146.622C197.099 147.77 197.94 149.191 199.284 150.949C199.967 151.614 200.279 151.813 200.59 152.012C200.59 152.012 200.609 151.855 200.621 152.13C200.954 152.602 201.274 152.799 201.594 152.997C201.594 152.997 201.586 152.842 201.6 153.131C202.032 153.792 202.451 154.165 202.87 154.538C202.87 154.538 202.826 154.62 202.967 154.859C203.545 155.437 203.981 155.775 204.417 156.114C204.417 156.114 204.433 156.011 204.496 156.277C204.992 156.878 205.424 157.214 205.857 157.55C205.942 157.879 206.12 158.147 206.664 158.743C207.364 159.483 207.79 159.832 208.216 160.181C208.216 160.181 208.252 160.231 208.375 160.438C208.675 160.894 208.91 161.058 209.204 161.14C209.204 161.14 209.236 161.174 209.376 161.441C209.94 162.041 210.362 162.373 210.784 162.706C210.784 162.706 210.799 162.651 210.83 162.92C211.166 163.371 211.472 163.552 211.778 163.733C211.778 163.733 211.782 163.669 211.853 163.98C212.858 165.118 213.793 165.945 214.727 166.771C214.727 166.771 214.748 166.7 214.81 167.033C217.086 169.568 219.3 171.77 221.515 173.972C221.515 173.972 221.531 173.889 221.583 174.162C221.956 174.623 222.276 174.811 222.595 174.998C222.595 174.998 222.593 174.838 222.609 175.117C222.936 175.595 223.245 175.795 223.555 175.995C224.196 176.978 224.836 177.962 225.477 178.946C225.981 178.795 226.486 178.644 226.99 178.493C226.724 176.594 226.725 174.61 226.153 172.807C214.257 135.341 202.295 97.8949 190.358 60.4414C190.163 59.8313 190.108 59.1769 190.505 58.2485C221.606 57.9855 252.189 58.0172 282.771 58.0488C283.462 60.0779 284.153 62.107 285.136 64.7908C287.856 73.1988 290.212 80.9751 292.725 88.7004C297.644 103.824 302.65 118.919 307.62 134.026C307.62 134.026 307.578 134.323 307.68 134.84C310.381 143.204 312.979 151.05 315.577 158.897C315.577 158.897 315.62 158.792 315.594 159.172C316.841 163.363 318.115 167.173 319.39 170.984C319.39 170.984 319.422 170.87 319.427 171.291C322.084 179.802 324.737 187.892 327.389 195.982C327.389 195.982 327.403 195.894 327.414 196.291C328.846 200.727 330.266 204.767 331.686 208.807C331.686 208.807 331.719 208.713 331.675 209.077C332.279 211.259 332.927 213.078 333.574 214.897C333.574 214.897 333.612 214.803 333.56 215.187C334.803 219.376 336.096 223.181 337.39 226.986C337.39 226.986 337.407 226.894 337.415 227.296C338.69 231.956 339.958 236.213 341.431 241.158C310.171 241.158 279.546 241.158 248.182 241.158C249.227 243.843 249.987 245.794 250.727 248.054C250.964 248.907 251.219 249.45 251.475 249.993C251.475 249.993 251.509 249.838 251.483 250.218C252.242 252.949 253.026 255.3 253.803 258.04C259.053 274.397 264.31 290.365 269.567 306.333C269.567 306.333 269.497 306.495 269.573 306.947C272.229 315.263 274.808 323.126 277.387 330.99C277.387 330.99 277.427 330.874 277.413 331.246C277.787 332.523 278.176 333.427 278.564 334.331C278.564 334.331 278.502 334.481 278.565 334.923C279.611 338.209 280.595 341.051 281.578 343.894C281.578 343.894 281.617 343.798 281.557 344.158C282.127 346.341 282.757 348.163 283.388 349.986C283.388 349.986 283.43 349.865 283.436 350.288C284.834 356.025 286.226 361.339 287.618 366.652C287.618 366.652 287.312 366.618 287.053 366.294C285.267 364.397 283.74 362.823 282.213 361.25C282.213 361.25 281.883 361.471 281.994 361.142C281.947 360.507 281.706 360.299 281.382 360.188C281.382 360.188 281.349 360.094 281.175 359.874C280.777 359.403 280.497 359.256 280.163 359.214C280.163 359.214 280.129 359.311 280.077 359.051C279.739 358.601 279.453 358.41 279.166 358.22C279.166 358.22 279.154 358.322 279.098 358.039C278.612 357.392 278.182 357.028 277.752 356.665C277.752 356.665 277.763 356.684 277.675 356.405C276.848 355.464 276.108 354.803 275.368 354.141C275.368 354.141 275.146 354.362 275.113 353.979C274.658 353.26 274.235 352.926 273.812 352.591C273.812 352.591 273.795 352.652 273.744 352.348C273.098 351.519 272.502 350.993 271.906 350.468C271.906 350.468 271.883 350.579 271.86 350.302C271.509 349.834 271.181 349.643 270.854 349.452C270.854 349.452 270.851 349.596 270.846 349.309C270.511 348.832 270.183 348.642 269.854 348.451C269.854 348.451 269.851 348.596 269.846 348.309C269.511 347.832 269.183 347.642 268.854 347.451C268.854 347.451 268.87 347.564 268.837 347.23C267.208 345.385 265.612 343.874 264.017 342.363C264.017 342.363 263.995 342.491 263.989 342.22C263.709 341.71 263.433 341.47 263.158 341.231C263.158 341.231 263.139 341.323 263.095 341.061C262.756 340.605 262.461 340.412 262.166 340.219C262.166 340.219 262.015 340.503 261.988 340.109C261.375 339.225 260.79 338.734 260.205 338.243C260.069 338.383 259.933 338.523 259.886 338.15C258.582 336.297 257.188 334.956 255.793 333.616C255.793 333.616 255.777 333.665 255.727 333.369C255.062 332.574 254.445 332.074 253.829 331.574C253.829 331.574 253.809 331.64 253.784 331.365C253.439 330.916 253.12 330.743 252.801 330.57C252.801 330.57 252.802 330.645 252.76 330.381C252.413 329.935 252.109 329.752 251.805 329.57C251.805 329.57 251.799 329.647 251.775 329.362C251.436 328.856 251.121 328.635 250.806 328.414C250.8 328.112 250.681 327.866 250.124 327.304C248.554 325.739 247.308 324.545 246.062 323.351C246.062 323.351 245.962 323.494 245.923 323.161C245.264 322.334 244.645 321.841 244.025 321.348C244.025 321.348 244.016 321.467 244 321.193C243.708 320.689 243.432 320.458 243.156 320.227C243.156 320.227 243.133 320.322 243.085 320.067C242.746 319.614 242.456 319.417 242.165 319.221C242.165 319.221 242.127 319.324 242.083 319.053C241.747 318.594 241.456 318.406 241.165 318.218C241.165 318.218 241.13 318.317 241.085 318.05C240.749 317.595 240.458 317.407 240.167 317.22C240.167 317.22 240.135 317.319 240.12 317.065C239.947 316.507 239.706 316.299 239.382 316.188C239.382 316.188 239.35 316.093 239.175 315.874C238.776 315.401 238.496 315.254 238.16 315.212C238.16 315.212 238.145 315.301 238.117 315.061C237.927 314.523 237.688 314.314 237.372 314.193C237.372 314.193 237.35 314.104 237.213 313.889C236.9 313.425 236.665 313.261 236.371 313.18C236.371 313.18 236.315 313.169 236.188 312.889C235.646 312.271 235.232 311.933 234.817 311.595C234.817 311.595 234.793 311.653 234.731 311.353C234.05 310.566 233.431 310.079 232.812 309.591C232.812 309.591 232.796 309.654 232.756 309.388C232.408 308.942 232.102 308.764 231.795 308.586C231.795 308.586 231.793 308.651 231.743 308.347C231.076 307.544 230.46 307.046 229.844 306.547C229.844 306.547 229.828 306.618 229.772 306.294C228.446 304.8 227.176 303.629 225.907 302.459C225.907 302.459 225.902 302.546 225.837 302.234C224.528 300.733 223.284 299.543 222.041 298.354C222.041 298.354 222.012 298.439 221.968 298.118C220.866 296.753 219.809 295.709 218.751 294.665C218.751 294.665 218.763 294.684 218.691 294.428C218.197 293.826 217.776 293.48 217.354 293.134C217.354 293.134 217.324 293.084 217.209 292.871C216.918 292.404 216.68 292.243 216.38 292.173C216.38 292.173 216.357 292.129 216.204 291.868C215.622 291.287 215.191 290.969 214.761 290.65C214.761 290.65 214.764 290.684 214.659 290.371C212.337 287.86 210.12 285.661 207.904 283.463C207.904 283.463 207.898 283.553 207.85 283.26C207.206 282.431 206.61 281.897 206.014 281.362C206.014 281.362 206.005 281.448 205.943 281.154C205.258 280.36 204.635 279.859 204.011 279.358C204.011 279.358 203.991 279.484 203.965 279.21C203.627 278.732 203.314 278.526 203.001 278.321C203.001 278.321 202.98 278.465 202.966 278.194C202.643 277.722 202.333 277.521 202.023 277.32C202.023 277.32 202.013 277.44 202.003 277.171C201.719 276.676 201.446 276.452 201.173 276.227C201.173 276.227 201.102 276.353 201.064 276.073C200.739 275.602 200.453 275.411 200.167 275.221C200.167 275.221 200.118 275.33 200.071 275.061C199.738 274.601 199.452 274.411 199.166 274.22C199.166 274.22 199.112 274.334 199.063 274.058C198.719 273.593 198.425 273.404 198.13 273.215C198.13 273.215 198.129 273.309 198.079 273.017C197.485 272.215 196.94 271.706 196.396 271.197C196.396 271.197 196.373 271.13 196.202 270.875C195.605 270.301 195.178 269.983 194.752 269.665C194.752 269.665 194.766 269.678 194.695 269.435C194.334 269.018 194.045 268.843 193.755 268.668C193.755 268.668 193.769 268.682 193.666 268.392C192.647 267.265 191.731 266.429 190.815 265.593C190.815 265.593 190.797 265.655 190.756 265.387C190.409 264.942 190.102 264.764 189.795 264.586C189.795 264.586 189.793 264.65 189.735 264.335C188.753 263.167 187.828 262.315 186.904 261.463C186.904 261.463 186.898 261.548 186.824 261.228C184.563 258.693 182.376 256.478 180.189 254.264C180.066 254.392 179.943 254.519 179.891 254.193C179.377 253.241 178.792 252.744 178.207 252.246C178.068 252.384 177.929 252.522 177.895 252.195C177.469 251.219 176.936 250.707 176.404 250.196C176.404 250.196 176.371 250.1 176.223 249.89C175.894 249.431 175.658 249.262 175.364 249.171C175.364 249.171 175.348 249.081 175.152 248.795C173.913 247.539 172.869 246.569 171.825 245.598C171.825 245.598 171.792 245.654 171.731 245.354C171.05 244.566 170.431 244.079 169.812 243.591C169.812 243.591 169.796 243.655 169.761 243.383C169.433 242.902 169.14 242.694 168.847 242.485C168.847 242.485 168.837 242.606 168.829 242.327C168.483 241.881 168.146 241.716 167.808 241.55C167.808 241.55 167.806 241.64 167.79 241.358C167.47 240.869 167.165 240.662 166.861 240.454C166.861 240.454 166.846 240.599 166.833 240.299C166.482 239.755 166.143 239.511 165.805 239.268C158.782 231.827 151.759 224.386 144.316 216.488C142.945 215.138 141.993 214.245 141.042 213.352C141.042 213.352 141.015 213.436 140.947 213.133C140.24 212.303 139.601 211.776 138.962 211.25Z" fill="#FFC800"/>
</svg>
